<svg width="25" height="25" viewBox="0 0 25 25" fill="none" xmlns="http://www.w3.org/2000/svg">
  <path
    id="Vector"
    fill-rule="evenodd"
    clip-rule="evenodd"
    d="M24.5 12.5C24.5 15.6826 23.2357 18.7348 20.9853 20.9853C18.7348 23.2357 15.6826 24.5 12.5 24.5C9.3174 24.5 6.26516 23.2357 4.01472 20.9853C1.76428 18.7348 0.5 15.6826 0.5 12.5C0.5 9.3174 1.76428 6.26516 4.01472 4.01472C6.26516 1.76428 9.3174 0.5 12.5 0.5C15.6826 0.5 18.7348 1.76428 20.9853 4.01472C23.2357 6.26516 24.5 9.3174 24.5 12.5ZM15.5 8C15.5 8.79565 15.1839 9.55871 14.6213 10.1213C14.0587 10.6839 13.2956 11 12.5 11C11.7044 11 10.9413 10.6839 10.3787 10.1213C9.81607 9.55871 9.5 8.79565 9.5 8C9.5 7.20435 9.81607 6.44129 10.3787 5.87868C10.9413 5.31607 11.7044 5 12.5 5C13.2956 5 14.0587 5.31607 14.6213 5.87868C15.1839 6.44129 15.5 7.20435 15.5 8ZM12.5 14C11.0639 13.9997 9.65791 14.4117 8.44912 15.1871C7.24033 15.9625 6.27957 17.0686 5.681 18.374C6.52502 19.3559 7.57141 20.1436 8.74842 20.6832C9.92543 21.2228 11.2052 21.5014 12.5 21.5C13.7948 21.5014 15.0746 21.2228 16.2516 20.6832C17.4286 20.1436 18.475 19.3559 19.319 18.374C18.7204 17.0686 17.7597 15.9625 16.5509 15.1871C15.3421 14.4117 13.9361 13.9997 12.5 14Z"
    fill="#C8ADFF"
  />
</svg>
