<svg width="25" height="25" viewBox="0 0 25 25" fill="none" xmlns="http://www.w3.org/2000/svg">
  <path
    id="Vector"
    fill-rule="evenodd"
    clip-rule="evenodd"
    d="M12.5 24.5C15.6826 24.5 18.7348 23.2357 20.9853 20.9853C23.2357 18.7348 24.5 15.6826 24.5 12.5C24.5 9.3174 23.2357 6.26516 20.9853 4.01472C18.7348 1.76428 15.6826 0.5 12.5 0.5C9.3174 0.5 6.26516 1.76428 4.01472 4.01472C1.76428 6.26516 0.5 9.3174 0.5 12.5C0.5 15.6826 1.76428 18.7348 4.01472 20.9853C6.26516 23.2357 9.3174 24.5 12.5 24.5ZM14 8C14 7.60218 13.842 7.22064 13.5607 6.93934C13.2794 6.65804 12.8978 6.5 12.5 6.5C12.1022 6.5 11.7206 6.65804 11.4393 6.93934C11.158 7.22064 11 7.60218 11 8V13.379L9.0605 11.4395C8.7776 11.1663 8.39869 11.0151 8.0054 11.0185C7.6121 11.0219 7.23588 11.1797 6.95777 11.4578C6.67966 11.7359 6.52191 12.1121 6.51849 12.5054C6.51507 12.8987 6.66626 13.2776 6.9395 13.5605L11.4395 18.0605C11.7208 18.3417 12.1023 18.4997 12.5 18.4997C12.8977 18.4997 13.2792 18.3417 13.5605 18.0605L18.0605 13.5605C18.3337 13.2776 18.4849 12.8987 18.4815 12.5054C18.4781 12.1121 18.3203 11.7359 18.0422 11.4578C17.7641 11.1797 17.3879 11.0219 16.9946 11.0185C16.6013 11.0151 16.2224 11.1663 15.9395 11.4395L14 13.379V8Z"
    fill="#C8ADFF"
  />
</svg>
