<svg width="24" height="25" viewBox="0 0 24 25" fill="none" xmlns="http://www.w3.org/2000/svg">
  <path
    fill-rule="evenodd"
    d="M12 24.5C18.6274 24.5 24 19.1274 24 12.5C24 5.87258 18.6274 0.5 12 0.5C5.37258 0.5 0 5.87258 0 12.5C0 19.1274 5.37258 24.5 12 24.5ZM8.99497 7.10503C8.8637 6.97375 8.68565 6.9 8.5 6.9C8.31435 6.9 8.1363 6.97375 8.00502 7.10503C7.87375 7.2363 7.8 7.41435 7.8 7.6V8.3H7.1C6.91435 8.3 6.7363 8.37375 6.60503 8.50503C6.47375 8.6363 6.4 8.81435 6.4 9C6.4 9.18565 6.47375 9.3637 6.60503 9.49498C6.7363 9.62625 6.91435 9.7 7.1 9.7H7.8V10.4C7.8 10.5857 7.87375 10.7637 8.00502 10.895C8.1363 11.0262 8.31435 11.1 8.5 11.1C8.68565 11.1 8.8637 11.0262 8.99497 10.895C9.12625 10.7637 9.2 10.5857 9.2 10.4V9.7H9.9C10.0857 9.7 10.2637 9.62625 10.395 9.49498C10.5262 9.3637 10.6 9.18565 10.6 9C10.6 8.81435 10.5262 8.6363 10.395 8.50503C10.2637 8.37375 10.0857 8.3 9.9 8.3H9.2V7.6C9.2 7.41435 9.12625 7.2363 8.99497 7.10503ZM8.99497 14.105C8.8637 13.9738 8.68565 13.9 8.5 13.9C8.31435 13.9 8.1363 13.9738 8.00502 14.105C7.87375 14.2363 7.8 14.4143 7.8 14.6V15.3H7.1C6.91435 15.3 6.7363 15.3738 6.60503 15.505C6.47375 15.6363 6.4 15.8143 6.4 16C6.4 16.1857 6.47375 16.3637 6.60503 16.495C6.7363 16.6263 6.91435 16.7 7.1 16.7H7.8V17.4C7.8 17.5857 7.87375 17.7637 8.00502 17.895C8.1363 18.0263 8.31435 18.1 8.5 18.1C8.68565 18.1 8.8637 18.0263 8.99497 17.895C9.12625 17.7637 9.2 17.5857 9.2 17.4V16.7H9.9C10.0857 16.7 10.2637 16.6263 10.395 16.495C10.5262 16.3637 10.6 16.1857 10.6 16C10.6 15.8143 10.5262 15.6363 10.395 15.505C10.2637 15.3738 10.0857 15.3 9.9 15.3H9.2V14.6C9.2 14.4143 9.12625 14.2363 8.99497 14.105ZM13.8271 7.04521C13.7046 6.951 13.5545 6.89995 13.4 6.9C13.2456 6.9001 13.0956 6.95123 12.9733 7.04542C12.851 7.13961 12.7633 7.27158 12.7238 7.4208L11.8978 10.5393L9.55 11.8938C9.44359 11.9552 9.35524 12.0436 9.2938 12.15C9.23237 12.2564 9.20003 12.3771 9.20003 12.5C9.20003 12.6229 9.23237 12.7436 9.2938 12.85C9.35524 12.9564 9.44359 13.0448 9.55 13.1062L11.8978 14.46L12.7231 17.5792C12.7627 17.7284 12.8505 17.8603 12.9729 17.9544C13.0953 18.0485 13.2453 18.0995 13.3996 18.0995C13.554 18.0995 13.704 18.0485 13.8264 17.9544C13.9488 17.8603 14.0366 17.7284 14.0762 17.5792L14.9022 14.4607L17.25 13.1062C17.3564 13.0448 17.4448 12.9564 17.5062 12.85C17.5676 12.7436 17.6 12.6229 17.6 12.5C17.6 12.3771 17.5676 12.2564 17.5062 12.15C17.4448 12.0436 17.3564 11.9552 17.25 11.8938L14.9022 10.54L14.0769 7.4208C14.0374 7.27147 13.9495 7.13941 13.8271 7.04521Z"
    fill="#C8ADFF"
  />
</svg>
