<svg width="24" height="25" viewBox="0 0 24 25" fill="none" xmlns="http://www.w3.org/2000/svg">
  <path
    fill-rule="evenodd"
    d="M12 24.5C15.1826 24.5 18.2348 23.2357 20.4853 20.9853C22.7357 18.7348 24 15.6826 24 12.5C24 9.3174 22.7357 6.26516 20.4853 4.01472C18.2348 1.76428 15.1826 0.5 12 0.5C8.8174 0.5 5.76516 1.76428 3.51472 4.01472C1.26428 6.26516 0 9.3174 0 12.5C0 15.6826 1.26428 18.7348 3.51472 20.9853C5.76516 23.2357 8.8174 24.5 12 24.5ZM17.5605 11.4395L13.0605 6.9395C12.7792 6.65829 12.3977 6.50032 12 6.50032C11.6023 6.50032 11.2208 6.65829 10.9395 6.9395L6.4395 11.4395C6.16626 11.7224 6.01507 12.1013 6.01849 12.4946C6.02191 12.8879 6.17966 13.2641 6.45777 13.5422C6.73588 13.8203 7.1121 13.9781 7.5054 13.9815C7.89869 13.9849 8.2776 13.8337 8.5605 13.5605L10.5 11.621V17C10.5 17.3978 10.658 17.7794 10.9393 18.0607C11.2206 18.342 11.6022 18.5 12 18.5C12.3978 18.5 12.7794 18.342 13.0607 18.0607C13.342 17.7794 13.5 17.3978 13.5 17V11.621L15.4395 13.5605C15.7224 13.8337 16.1013 13.9849 16.4946 13.9815C16.8879 13.9781 17.2641 13.8203 17.5422 13.5422C17.8203 13.2641 17.9781 12.8879 17.9815 12.4946C17.9849 12.1013 17.8337 11.7224 17.5605 11.4395Z"
    fill="#C8ADFF"
  />
</svg>
