<svg width="21" height="36" viewBox="0 0 21 36" fill="none" xmlns="http://www.w3.org/2000/svg">
<g id="pooltogether-logo">
<g id="pooltogether-white-wordmark">
<path id="pool" d="M10.4497 0C16.2141 0 20.8871 4.75102 20.8871 10.6117V16.7134C20.8871 22.5741 16.2141 27.3251 10.4497 27.3251C9.54422 27.3251 8.66568 27.2079 7.82796 26.9875L7.82806 27.7079C7.82806 31.9952 4.39307 35.4789 0.129455 35.5481L0 35.5492V12.2035L0.011963 12.2032L0.0122811 10.6117C0.0122811 4.75102 4.68527 0 10.4497 0ZM10.4497 7.95877C9.00859 7.95877 7.84034 9.14652 7.84034 10.6117V16.7134C7.84034 18.1786 9.00859 19.3663 10.4497 19.3663C11.8908 19.3663 13.0591 18.1786 13.0591 16.7134V10.6117C13.0591 9.14652 11.8908 7.95877 10.4497 7.95877Z" fill="white"/>
</g>
</g>
</svg>
